PathFileType  4	(X/Y/Z) C:\Users\antoi\Documents\MyRepositories\mobilecap\ResultsAnalysis
DataRate	CameraRate	NumFrames	NumMarkers	Units	OrigDataRate	OrigDataStartFrame	OrigNumFrames
100.0	100.0	4	51	mm	100.0	580	662
Frame#	Time	r_knee			r_shank_antsup			r_ankle			r_calc			r_5meta			r_toe			L_knee			L_shank_antsup			L_ankle			L_calc			L_5meta			L_toe			r_sh2			r_sh3			r_sh4			L_sh2			L_sh3			r_thigh1			r_thigh2			r_thigh3			r_thigh4			r_thigh5			L_thigh1			L_thigh2			L_thigh3			L_thigh4			r.ASIS			r.PSIS			L.ASIS			L.PSIS			C7			R_Shoulder			L_Shoulder			R_Sternum			L_Sternum			R_humerus			R_elbow_med			R_elbow_lat			R_forearm			R_wrist_radius			R_wrist_ulna			L_humerus			L_elbow_med			L_elbow_lat			L_forearm			L_wrist_radius			L_wrist_ulna			R_HJC			L_HJC			R_HJC_reg			L_HJC_reg			
		X1	Y1	Z1	X2	Y2	Z2	X3	Y3	Z3	X4	Y4	Z4	X5	Y5	Z5	X6	Y6	Z6	X7	Y7	Z7	X8	Y8	Z8	X9	Y9	Z9	X10	Y10	Z10	X11	Y11	Z11	X12	Y12	Z12	X13	Y13	Z13	X14	Y14	Z14	X15	Y15	Z15	X16	Y16	Z16	X17	Y17	Z17	X18	Y18	Z18	X19	Y19	Z19	X20	Y20	Z20	X21	Y21	Z21	X22	Y22	Z22	X23	Y23	Z23	X24	Y24	Z24	X25	Y25	Z25	X26	Y26	Z26	X27	Y27	Z27	X28	Y28	Z28	X29	Y29	Z29	X30	Y30	Z30	X31	Y31	Z31	X32	Y32	Z32	X33	Y33	Z33	X34	Y34	Z34	X35	Y35	Z35	X36	Y36	Z36	X37	Y37	Z37	X38	Y38	Z38	X39	Y39	Z39	X40	Y40	Z40	X41	Y41	Z41	X42	Y42	Z42	X43	Y43	Z43	X44	Y44	Z44	X45	Y45	Z45	X46	Y46	Z46	X47	Y47	Z47	X48	Y48	Z48	X49	Y49	Z49	X50	Y50	Z50	X51	Y51	Z51	

580	5.79000000	-319.53495	502.33330	-453.68962	-271.31353	439.81624	-450.96871	-309.77546	97.61500	-405.40889	-373.18918	61.70735	-445.79338	-210.37052	45.02743	-355.34337	-157.59980	72.02180	-405.12755	-292.97847	499.75383	-872.52510	-259.12523	411.08071	-895.52173	-324.15303	100.18153	-903.65071	-384.19622	61.25269	-858.03794	-220.95917	44.32735	-957.47514	-174.65335	68.79962	-908.23792	-287.12637	331.64967	-414.70132	-352.01118	446.10842	-438.23895	-360.96951	335.62779	-417.60451	-347.33173	421.83769	-880.88619	-353.52752	301.36838	-903.67654	-324.17176	827.82712	-474.11577	-303.11599	717.25568	-465.25551	-354.78886	684.87881	-438.56396	-434.02520	805.71375	-459.73589	-408.56499	691.11646	-454.12635	-347.32170	768.04808	-883.98509	-296.61491	639.93871	-880.21001	-445.93803	728.15949	-833.44714	-389.97200	599.84850	-845.08762	-337.02448	967.01792	-535.04463	-529.02551	972.79694	-615.22599	-333.22443	950.13084	-786.11664	-534.02720	970.49201	-712.70738	-407.04666	1401.57189	-660.36017	-308.67956	1356.16335	-493.29018	-331.91143	1371.49890	-832.74852	-261.97645	1349.61480	-636.66322	-258.98997	1354.89895	-682.33341	-310.72539	1231.18975	-410.32161	-381.49413	1019.88186	-408.44262	-340.72624	1045.95645	-344.75724	-223.87214	1055.20269	-420.37966	-126.94048	1058.05123	-499.62617	-112.77059	1026.40377	-494.31592	-323.72533	1271.15752	-912.11698	-368.84615	1032.34305	-924.39693	-337.08832	1080.57138	-989.91981	-252.88627	1104.82749	-922.90812	-135.36934	1115.11604	-838.17982	-117.13669	1093.93157	-857.64117	-399.46648	875.44744	-555.22357	-399.27550	866.29355	-761.47963	-391.07140	876.82719	-565.27429	-399.57147	872.88382	-731.11007	
581	5.80000000	-309.57108	503.19520	-450.94893	-261.18986	439.57405	-447.64286	-309.53294	98.14256	-405.67619	-372.76167	61.74528	-445.78203	-210.19759	45.21595	-355.90472	-157.54627	72.48871	-405.33386	-284.57082	499.51002	-875.61798	-253.00620	410.80236	-898.00893	-323.58240	100.84855	-903.29382	-384.11783	61.34484	-858.19746	-220.10220	45.27698	-957.11652	-174.12202	69.16596	-906.77632	-280.73161	331.49696	-412.35220	-341.74266	447.92919	-436.05223	-354.21166	337.31572	-416.34778	-340.80907	423.31756	-884.05404	-349.29449	302.92678	-905.81588	-328.80093	827.39643	-473.37454	-303.82712	717.94824	-462.64291	-354.49022	684.06590	-436.12431	-438.03048	801.20336	-460.42611	-408.01778	688.15684	-452.85683	-348.07402	766.07992	-885.19231	-292.93472	639.66346	-882.86985	-445.32531	722.23780	-835.00244	-384.64826	596.22737	-848.05132	-344.79375	963.57217	-534.94745	-535.69304	972.17686	-618.43759	-338.86341	944.33373	-786.36790	-539.67382	968.32897	-714.88734	-403.57614	1399.97914	-661.75788	-305.57061	1351.95831	-494.98230	-328.54151	1367.11617	-834.11883	-260.44230	1345.46558	-638.29443	-256.79213	1349.77971	-683.49770	-306.89632	1227.75005	-411.82772	-376.66231	1016.04941	-408.61109	-336.09815	1043.02479	-344.83017	-219.52726	1052.74855	-420.40992	-122.60003	1055.33745	-499.38907	-108.26865	1023.70889	-493.96882	-320.20750	1267.05049	-912.94701	-362.58797	1028.14409	-924.48654	-331.78760	1076.20351	-990.26195	-248.03817	1101.05241	-922.74536	-131.11876	1112.27673	-837.98066	-112.64458	1091.13024	-857.30995	-408.60067	872.99186	-555.33192	-406.26079	861.73206	-761.48432	-400.47691	874.96256	-564.42655	-407.34149	868.33327	-730.61375	
582	5.81000000	-297.74018	503.80157	-447.15609	-250.06478	438.84306	-444.23731	-309.13741	98.79809	-405.92214	-372.59906	61.97857	-445.98783	-210.03967	45.62428	-356.46196	-157.42052	72.89274	-405.86994	-277.91544	499.27855	-878.70133	-247.57262	410.06487	-900.37336	-323.03756	101.12283	-903.32196	-384.14180	61.32199	-858.73540	-219.15981	45.33117	-955.77228	-173.62615	69.57489	-905.18038	-273.20721	331.19182	-409.62947	-330.21200	449.73903	-432.44166	-346.28640	339.21895	-414.05470	-335.28521	424.07235	-887.40413	-345.52363	303.76358	-908.03439	-334.03030	826.15883	-472.76709	-304.48777	718.58665	-459.70162	-353.61314	682.75060	-433.30989	-442.56608	795.08347	-461.33710	-406.91197	684.10317	-451.06924	-349.58503	763.93085	-887.39877	-290.26048	639.21074	-885.84826	-444.86284	716.75581	-837.29529	-380.09019	592.54288	-850.38880	-352.44379	959.30393	-535.82867	-541.58208	973.40075	-621.61216	-344.54961	938.98779	-787.59891	-544.67414	969.10476	-717.81333	-399.87773	1397.41535	-663.72831	-302.47975	1347.18779	-497.33372	-324.57832	1362.06500	-835.20340	-259.11652	1340.06288	-640.98960	-254.13907	1344.04918	-684.39570	-303.05810	1224.45144	-413.75293	-371.52712	1012.57341	-409.05508	-331.55942	1040.13453	-345.20768	-215.14946	1050.04917	-420.81472	-118.21095	1052.54614	-499.38468	-103.72785	1021.03178	-493.77181	-316.80588	1262.92469	-913.88332	-355.91689	1024.98475	-923.98489	-326.48564	1071.62157	-990.63397	-243.09518	1096.91202	-922.77014	-127.04377	1109.45671	-837.69999	-108.15328	1088.28441	-856.58743	-418.45267	870.59470	-556.77509	-414.38695	858.50180	-762.85406	-410.51240	872.49002	-565.46657	-415.87515	865.06404	-732.00884	
583	5.82000000	-285.45057	504.08480	-442.81547	-239.05215	437.94308	-440.67724	-308.81024	99.70403	-405.89878	-372.58214	62.28688	-446.23163	-209.95388	45.94744	-357.17295	-157.29653	73.34201	-406.38431	-273.02901	498.86323	-881.85105	-242.49379	408.82767	-902.15830	-322.61263	101.14668	-903.87384	-384.34037	61.22273	-859.54729	-218.36844	44.73642	-953.53675	-173.34124	70.13911	-903.66943	-265.45184	330.28102	-406.65487	-318.59436	451.24276	-428.14373	-337.97433	341.17314	-411.08505	-330.22979	424.39534	-890.63794	-342.10803	304.03243	-910.21343	-340.31718	824.30080	-472.17249	-305.20819	719.14925	-456.44676	-352.35955	680.97861	-430.20778	-447.31533	787.25759	-461.91969	-405.02801	678.74351	-449.16121	-352.12834	761.23340	-890.24233	-288.96893	638.17283	-888.70297	-445.31864	711.17878	-839.13862	-376.77723	588.69265	-852.14786	-360.94533	954.94050	-536.10248	-546.40097	974.90185	-624.54135	-350.32271	933.64216	-789.40628	-548.98914	971.36077	-720.77047	-396.28507	1393.59328	-666.07031	-299.77292	1341.73281	-500.13048	-320.13236	1355.90661	-836.00434	-257.26644	1333.26871	-643.21950	-251.56406	1337.07694	-685.63423	-299.41777	1220.97719	-415.85678	-367.04953	1008.65732	-409.44896	-327.29928	1036.99549	-345.64359	-210.81599	1046.92008	-421.38904	-113.88736	1049.81358	-499.49582	-99.16548	1018.45877	-493.78278	-313.44150	1258.21418	-914.91178	-349.69699	1021.21843	-923.75160	-321.01834	1066.43978	-991.43264	-238.03835	1092.26846	-923.20363	-123.09763	1106.54683	-837.16268	-103.76586	1085.39701	-855.60592	-428.77656	868.27034	-558.42729	-422.82653	855.85170	-764.43335	-420.26959	868.33608	-566.85787	-424.78122	862.17132	-734.60767	
